<svg height="480pt" viewBox="0 0 480 480.9852" width="480pt" xmlns="http://www.w3.org/2000/svg"><path d="m472.332031 241.144531c0 128.128907-103.871093 232-232 232-128.128906 0-232-103.871093-232-232 0-128.128906 103.871094-232 232-232 128.128907 0 232 103.871094 232 232zm0 0" fill="#cab9a4"/><path d="m405.589844 8.007812-56.570313 56.570313 11.3125 56.566406 56.566407-56.566406zm0 0" fill="#ff9811"/><path d="m360.332031 121.144531 56-56-56 56 56.566407 11.3125 56.570312-56.566406-56.570312-11.3125zm0 0" fill="#ffea97"/><path d="m240.332031 145.144531v-32c-70.691406 0-128 57.308594-128 128 0 70.691407 57.308594 128 128 128 70.691407 0 128-57.308593 128-128 .042969-33.957031-13.449219-66.527343-37.488281-90.511719l-90.511719 90.511719 90.511719-90.511719c-23.980469-24.039062-56.554688-37.53125-90.511719-37.488281zm0 0" fill="#bd0022"/><path d="m264.332031 241.144531c0 13.253907-10.746093 24-24 24-13.253906 0-24-10.746093-24-24 0-13.253906 10.746094-24 24-24 13.253907 0 24 10.746094 24 24zm0 0" fill="#ffda44"/><g fill="#1c1c1c"><path d="m458.394531 161.546875c-2.015625.660156-3.6875 2.097656-4.644531 3.992187-.957031 1.894532-1.121094 4.09375-.457031 6.109376 32.683593 100.027343-8.625 209.320312-99.300781 262.726562-90.671876 53.402344-206.289063 36.53125-277.917969-40.558594-71.628907-77.085937-79.984375-193.628906-20.078125-280.144531s171.933594-119.703125 269.296875-79.773437c2.652343 1.148437 5.71875.78125 8.019531-.96875 2.304688-1.75 3.484375-4.601563 3.089844-7.46875-.398438-2.863282-2.308594-5.289063-5-6.347657-28.875-11.925781-59.824219-18.03125-91.070313-17.96875-103.960937.035157-196.066406 67.019531-228.136719 165.90625-32.070312 98.890625 3.195313 207.183594 87.347657 268.222657 84.152343 61.039062 198.039062 60.941406 282.082031-.25 84.046875-61.1875 119.121094-169.542969 86.875-268.375-.660156-2.015626-2.097656-3.6875-3.992188-4.644532-1.898437-.957031-4.09375-1.121094-6.113281-.457031zm0 0"/><path d="m351.652344 118.511719-21.121094 21.121093c-22.769531-20.308593-51.738281-32.320312-82.199219-34.078124v-24.410157c0-4.417969-3.582031-8-8-8s-8 3.582031-8 8v24.410157c-68.691406 4.105468-123.484375 58.898437-127.59375 127.589843h-24.40625c-4.417969 0-8 3.582031-8 8s3.582031 8 8 8h24.40625c4.109375 68.695313 58.902344 123.484375 127.59375 127.59375v24.40625c0 4.417969 3.582031 8 8 8s8-3.582031 8-8v-24.40625c68.691407-4.109375 123.484375-58.898437 127.59375-127.59375h24.40625c4.417969 0 8-3.582031 8-8s-3.582031-8-8-8h-24.40625c-1.761719-30.460937-13.773437-59.429687-34.082031-82.199219l21.121094-21.121093 52.367187 10.480469c.527344.101562 1.0625.152343 1.601563.152343 2.121094 0 4.15625-.84375 5.65625-2.34375l56.542968-56.566406c2.085938-2.085937 2.855469-5.152344 2-7.976563-.855468-2.828124-3.195312-4.949218-6.089843-5.527343l-51.34375-10.265625-10.261719-51.34375c-.578125-2.894532-2.703125-5.234375-5.527344-6.089844-2.824218-.855469-5.890625-.085938-7.976562 2l-56.570313 56.578125c-1.882812 1.882813-2.707031 4.585937-2.191406 7.199219zm8.273437 114.632812h-23.59375c-4.417969 0-8 3.582031-8 8s3.582031 8 8 8h23.59375c-4.066406 59.867188-51.726562 107.527344-111.59375 111.59375v-23.59375c0-4.417969-3.582031-8-8-8s-8 3.582031-8 8v23.59375c-59.867187-4.066406-107.527343-51.726562-111.59375-111.59375h23.59375c4.417969 0 8-3.582031 8-8s-3.582031-8-8-8h-23.59375c4.066407-59.863281 51.726563-107.523437 111.59375-111.589843v23.589843c0 4.417969 3.582031 8 8 8s8-3.582031 8-8v-23.589843c26.222657 1.722656 51.140625 12.054687 70.886719 29.390624l-84.542969 84.542969c-2.078125 2.007813-2.914062 4.984375-2.179687 7.78125.730468 2.796875 2.914062 4.980469 5.710937 5.714844 2.796875.730469 5.773438-.101563 7.78125-2.183594l84.542969-84.542969c17.339844 19.746094 27.671875 44.664063 29.394531 70.886719zm59.605469-159.878906 37.710938 7.535156-42.972657 42.96875-37.714843-7.535156zm-18.855469-49.03125 7.535157 37.710937-42.96875 42.976563-7.535157-37.710937zm0 0"/></g></svg>